PathFileType	4	(X/Y/Z)	\\147.46.242.158\로컬 디스크 (e)\MOCAP Data\Iguana Capture\iguana\Project 2\Capture day 7\Session 2\Take12.trc
DataRate	CameraRate	NumFrames	NumMarkers	Units	OrigDataRate	OrigDataStartFrame	OrigNumFrames
120.0	120.0	13	23	mm	120.0	415	16798
Frame#	Time	ana:head1			ana:head2			ana:bone1			ana:bone2			ana:bone3			ana:tail1			ana:tail2			ana:tail3			ana:tail4			ana:Rforefoot1			ana:Rforefoot2			ana:Rforefoot3			ana:Lforefoot1			ana:Lforefoot2			ana:Lforefoot3			ana:RhindLeg1			ana:RhindLeg2			ana:RhindLeg3			ana:RhindLeg4			ana:LhindLeg1			ana:LhindLeg2			ana:LhindLeg3			ana:LhindLeg4			
		X1	Y1	Z1	X2	Y2	Z2	X3	Y3	Z3	X4	Y4	Z4	X5	Y5	Z5	X6	Y6	Z6	X7	Y7	Z7	X8	Y8	Z8	X9	Y9	Z9	X10	Y10	Z10	X11	Y11	Z11	X12	Y12	Z12	X13	Y13	Z13	X14	Y14	Z14	X15	Y15	Z15	X16	Y16	Z16	X17	Y17	Z17	X18	Y18	Z18	X19	Y19	Z19	X20	Y20	Z20	X21	Y21	Z21	X22	Y22	Z22	X23	Y23	Z23	

2644	22.025	387.56378	115.44591	46.37352	377.69083	120.19779	47.16473	356.03964	124.28539	39.73490	327.38235	128.82317	37.88088	295.69876	138.08197	27.47971	269.23331	125.57645	13.91562	256.96625	91.06915	7.48627	266.45950	48.19173	8.09322	288.32227	11.60037	5.87197	357.99707	114.76080	22.14639	351.22452	101.61503	14.66998	363.59341	102.55026	2.45268	356.51923	139.27219	25.49339	348.19229	148.69681	19.73345	344.70850	150.37117	4.04530	299.70056	128.05803	20.05035	310.60825	110.60448	16.10792	299.51419	120.88270	2.11721	309.02927	121.51920	4.01434	295.54398	145.85655	22.06632	299.04910	161.33743	26.38416	283.30722	160.78767	11.95850	286.70981	170.36652	14.51224	
2645	22.033	387.63571	115.40447	46.41563	377.78156	120.14716	47.16239	356.11795	124.24802	39.72686	327.47220	128.76221	37.88262	295.74451	138.10339	27.47818	269.24094	125.69411	13.93631	256.95145	91.11430	7.47784	266.33224	48.21329	8.08010	288.03690	11.56697	5.88009	358.05890	114.69369	22.17693	351.27878	101.56612	14.67661	363.58344	102.55667	2.43605	356.65991	139.13695	25.46552	348.27267	148.65099	19.75432	344.71344	150.34668	4.05159	299.80615	128.19276	19.97616	310.69528	110.59754	15.93517	299.54019	121.00241	2.09291	309.03397	121.51460	4.01124	295.70621	145.90569	22.07101	300.13931	161.21017	26.62751	284.38751	161.90541	12.20059	289.01517	171.23643	14.80574	
2646	22.042	387.69562	115.35744	46.46684	377.87518	120.10220	47.17152	356.20471	124.20726	39.70919	327.56924	128.71420	37.86892	295.81314	138.11862	27.43500	269.24374	125.85184	13.94726	256.93237	91.15525	7.47541	266.23505	48.25267	8.07557	287.80618	11.56852	5.89244	358.21375	114.59884	22.19201	351.33560	101.52830	14.68460	363.57852	102.55407	2.43164	356.75385	138.98195	25.43168	348.34402	148.60788	19.77851	344.72278	150.33322	4.06398	299.87787	128.30081	19.90381	310.73743	110.55509	15.80664	299.69537	120.92979	2.06788	309.03900	121.51016	4.00800	295.79242	146.07916	22.05300	301.10419	161.12346	26.78797	285.60574	162.98245	12.25769	291.28583	172.02086	14.97109	
2647	22.050	387.75284	115.30669	46.51635	377.96329	120.06444	47.19106	356.29556	124.17018	39.67456	327.67212	128.68730	37.83473	295.87915	138.12283	27.38099	269.27295	125.98763	13.95676	256.93506	91.17986	7.44873	266.15424	48.30758	8.06048	287.66089	11.66164	5.89669	358.43521	114.47781	22.20054	351.39526	101.50376	14.69714	363.57343	102.54989	2.42710	356.84650	138.83955	25.39908	348.40652	148.56656	19.79495	344.73071	150.32269	4.07944	299.96289	128.26392	19.87754	310.77057	110.51410	15.67461	300.11722	120.89008	1.86892	309.04434	121.50589	4.00464	295.85098	146.27684	22.03890	301.97806	160.98906	26.83683	287.03485	164.06737	12.12036	293.59921	172.71457	15.00880	
2648	22.058	387.80807	115.25069	46.54784	378.04123	120.03814	47.21696	356.37506	124.11623	39.63723	327.77139	128.66472	37.80093	295.95377	138.12102	27.31091	269.33075	126.09017	13.96798	256.95712	91.16416	7.41119	266.08871	48.36417	8.05269	287.54089	11.80550	5.88869	358.71719	114.33678	22.19825	351.45096	101.49833	14.70880	363.57220	102.54101	2.42674	356.92850	138.72784	25.36816	348.46579	148.53192	19.81052	344.74280	150.31270	4.09939	300.05771	128.22556	19.83401	310.74713	110.46495	15.61396	300.72571	121.30042	1.38304	309.04999	121.50181	4.00116	295.91876	146.46637	22.03044	302.84641	160.82533	26.83050	288.64493	165.08963	11.83399	295.94876	173.34468	14.98346	
2649	22.067	387.85440	115.18887	46.56606	378.10840	120.01819	47.24210	356.45279	124.05355	39.59724	327.87222	128.65298	37.75687	296.02887	138.08963	27.25472	269.41888	126.13938	13.98026	256.97668	91.19942	7.37868	266.03357	48.41920	8.04563	287.42441	11.98778	5.87956	359.01959	114.23574	22.15071	351.50516	101.50107	14.73792	363.57303	102.53320	2.42672	357.01059	138.64839	25.32619	348.46518	148.57776	19.83758	344.76050	150.30679	4.12367	300.12863	128.15030	19.80567	310.65424	110.42117	15.65779	301.47769	122.12704	0.65055	309.05591	121.49790	3.99759	295.99283	146.60777	22.03283	303.71484	160.66391	26.75556	290.55014	165.96739	11.30195	298.29541	173.86913	14.79989	
2650	22.075	387.90274	115.13675	46.56267	378.16849	119.99840	47.26098	356.51852	123.98396	39.56609	327.96390	128.64613	37.72235	296.11792	138.06912	27.20174	269.52112	126.15925	13.99042	257.01663	91.23582	7.34304	265.97510	48.47655	8.03614	287.34161	12.20656	5.86516	359.29147	114.17419	22.07367	351.54965	101.50025	14.76952	363.57648	102.52782	2.42934	357.08658	138.61581	25.28598	348.43756	148.67786	19.85447	344.78427	150.30298	4.15029	300.18857	127.94341	19.82520	310.53238	110.38173	15.76765	302.28220	123.35248	-0.25586	309.06210	121.49420	3.99394	296.15662	146.63890	22.05240	304.61026	160.47696	26.68320	292.50275	166.79120	10.72420	300.58853	174.22319	14.54001	
2651	22.083	387.95966	115.10596	46.55003	378.23093	119.97574	47.27678	356.57889	123.91660	39.54425	328.02542	128.65627	37.71461	296.23663	138.08009	27.16271	269.62772	126.17054	13.99854	257.03391	91.36653	7.32548	265.90588	48.54310	8.02522	287.22501	12.38959	5.84420	359.49753	114.13084	22.00684	351.58679	101.49888	14.79102	363.58322	102.51929	2.42563	357.17725	138.58897	25.22853	348.40054	148.82649	19.85497	344.81393	150.29881	4.17922	300.24536	127.79263	19.84323	310.38556	110.33370	15.95104	303.09839	124.56201	-1.14324	309.06848	121.49069	3.99020	296.40546	146.58038	22.04705	305.47583	160.33217	26.60298	294.52933	167.37128	10.07731	302.65085	174.45715	14.32320	
2652	22.092	388.01251	115.07952	46.54393	378.29132	119.94728	47.28594	356.63770	123.86523	39.53439	327.97076	128.79173	37.78177	296.41122	138.06024	27.15546	269.71008	126.23295	14.00737	257.02853	91.56953	7.32820	265.81012	48.64030	7.99723	287.08548	12.50425	5.80871	359.63199	114.14391	21.92027	351.61517	101.49710	14.79963	363.59195	102.51049	2.41930	357.27148	138.56761	25.16632	348.39417	148.93155	19.84613	344.83911	150.29767	4.20108	300.27353	127.65775	19.86969	310.32184	110.30360	16.04386	303.75977	125.66857	-1.90768	309.07516	121.48739	3.98641	296.69849	146.55943	21.98286	306.23721	160.21857	26.53726	296.48474	167.76968	9.43276	304.54318	174.61496	14.05198	
2653	22.100	388.05481	115.03542	46.54164	378.34900	119.91613	47.28973	356.69980	123.83652	39.53572	327.91937	128.95703	37.90689	296.56616	138.08496	27.14825	269.76953	126.34231	14.01305	257.01563	91.77361	7.34645	265.68481	48.76102	7.97091	286.90872	12.55281	5.76151	359.67883	114.13310	21.89743	351.63327	101.48952	14.79890	363.60358	102.50055	2.40667	357.36279	138.55167	25.10553	348.44324	148.96114	19.82536	344.86789	150.29866	4.22620	300.29062	127.60744	19.88941	310.31268	110.28611	16.08519	304.20090	126.41139	-2.39597	309.08200	121.48428	3.98255	296.97519	146.56590	21.91249	306.92746	160.14897	26.40820	298.24026	168.01527	8.83677	306.25589	174.70581	13.69951	
2654	22.108	388.08725	114.97833	46.53843	378.39944	119.88683	47.28889	356.76181	123.82447	39.54231	327.86621	129.14139	38.05721	296.70175	138.13991	27.12675	269.78876	126.54579	14.00819	257.01324	91.91726	7.37006	265.52383	48.90948	7.95203	286.67825	12.51607	5.71304	359.71979	114.12489	21.87816	351.64749	101.48805	14.79330	363.61673	102.49194	2.39369	357.44415	138.53352	25.05059	348.55084	148.89423	19.80403	344.90167	150.30620	4.23680	300.19739	127.66322	19.91737	310.31674	110.28721	16.13923	304.37552	126.70842	-2.57204	309.08905	121.48141	3.97866	297.22620	146.64052	21.82373	307.49542	160.16185	26.23708	299.73300	168.24625	8.33159	307.79596	174.80786	13.21281	
2655	22.117	388.11084	114.90476	46.53547	378.48111	119.81690	47.34193	356.81888	123.83753	39.54456	327.86401	129.29703	38.19173	296.84921	138.15921	27.10621	269.79642	126.77992	13.99203	257.02725	91.99150	7.38493	265.37091	49.06741	7.93323	286.43604	12.48530	5.67766	359.75421	114.12333	21.86368	351.66183	101.48874	14.78593	363.63101	102.48801	2.38045	357.51144	138.51244	25.00646	348.69058	148.75719	19.79259	344.93710	150.31766	4.23821	300.03030	127.78558	19.96145	310.33447	110.30801	16.19691	304.38806	126.73959	-2.56436	309.09628	121.47874	3.97474	297.41318	146.77689	21.72580	308.02908	160.24985	25.97832	300.90955	168.56369	7.93802	309.21439	174.96588	12.57234	
2656	22.125	388.13406	114.82599	46.53770	378.58243	119.71997	47.43479	356.86240	123.85023	39.55317	327.96005	129.39583	38.25651	296.96167	138.17528	27.08146	269.80173	127.04903	13.95735	257.03525	92.05442	7.39828	265.20099	49.22909	7.93912	286.17065	12.50467	5.67149	359.77924	114.08500	21.88597	351.67300	101.49591	14.77458	363.64359	102.48704	2.37046	357.56143	138.49425	24.98143	348.85416	148.57243	19.78424	344.97308	150.32993	4.24058	299.87433	127.90845	20.00278	310.36703	110.34449	16.26523	304.40295	126.77324	-2.56056	309.10367	121.47631	3.97079	297.54947	146.93536	21.63053	308.46875	160.37949	25.64707	301.80591	168.99985	7.61361	310.54462	175.18425	11.79701	
